<svg xmlns="http://www.w3.org/2000/svg" xmlns:xlink="http://www.w3.org/1999/xlink" contentStyleType="text/css" data-diagram-type="DESCRIPTION" height="541px" preserveAspectRatio="none" style="width:797px;height:541px;background:#FFFFFF;" version="1.1" viewBox="0 0 797 541" width="797px" zoomAndPan="magnify"><defs/><g><!--cluster Ecommerce--><g class="cluster" data-entity="Ecommerce" data-source-line="2" data-uid="ent0002" id="cluster_Ecommerce"><path d="M8.5,6 L100.3496,6 A3.75,3.75 0 0 1 102.8496,8.5 L109.8496,28.2969 L788.47,28.2969 A2.5,2.5 0 0 1 790.97,30.7969 L790.97,531.5 A2.5,2.5 0 0 1 788.47,534 L8.5,534 A2.5,2.5 0 0 1 6,531.5 L6,8.5 A2.5,2.5 0 0 1 8.5,6" fill="none" style="stroke:#000000;stroke-width:1.5;"/><line style="stroke:#000000;stroke-width:1.5;" x1="6" x2="109.8496" y1="28.2969" y2="28.2969"/><text fill="#000000" font-family="sans-serif" font-size="14" font-weight="bold" lengthAdjust="spacing" textLength="90.8496" x="10" y="20.9951">Ecommerce</text></g><!--cluster Customer--><g class="cluster" data-entity="Customer" data-source-line="6" data-uid="ent0003" id="cluster_Customer"><rect fill="none" height="238" rx="2.5" ry="2.5" style="stroke:#181818;stroke-width:1;" width="144.13" x="30" y="197"/><text fill="#000000" font-family="sans-serif" font-size="14" font-weight="bold" lengthAdjust="spacing" textLength="75.8721" x="64.129" y="211.9951">Customer</text></g><!--cluster Account--><g class="cluster" data-entity="Account" data-source-line="12" data-uid="ent0006" id="cluster_Account"><path d="M295.03,427 L359.7068,427 A3.75,3.75 0 0 1 362.2068,429.5 L369.2068,449.2969 L456.25,449.2969 A2.5,2.5 0 0 1 458.75,451.7969 L458.75,507.5 A2.5,2.5 0 0 1 456.25,510 L295.03,510 A2.5,2.5 0 0 1 292.53,507.5 L292.53,429.5 A2.5,2.5 0 0 1 295.03,427" fill="none" style="stroke:#000000;stroke-width:1.5;"/><line style="stroke:#000000;stroke-width:1.5;" x1="292.53" x2="369.2068" y1="449.2969" y2="449.2969"/><text fill="#000000" font-family="sans-serif" font-size="14" font-weight="bold" lengthAdjust="spacing" textLength="63.6768" x="296.53" y="441.9951">Account</text></g><!--cluster Basket--><g class="cluster" data-entity="Basket" data-source-line="16" data-uid="ent0008" id="cluster_Basket"><path d="M271.63,49 L326.5792,49 A3.75,3.75 0 0 1 329.0792,51.5 L336.0792,71.2969 L479.64,71.2969 A2.5,2.5 0 0 1 482.14,73.7969 L482.14,400.5 A2.5,2.5 0 0 1 479.64,403 L271.63,403 A2.5,2.5 0 0 1 269.13,400.5 L269.13,51.5 A2.5,2.5 0 0 1 271.63,49" fill="none" style="stroke:#000000;stroke-width:1.5;"/><line style="stroke:#000000;stroke-width:1.5;" x1="269.13" x2="336.0792" y1="71.2969" y2="71.2969"/><text fill="#000000" font-family="sans-serif" font-size="14" font-weight="bold" lengthAdjust="spacing" textLength="53.9492" x="273.13" y="63.9951">Basket</text></g><!--cluster Warehouse--><g class="cluster" data-entity="Warehouse" data-source-line="24" data-uid="ent0014" id="cluster_Warehouse"><path d="M565.64,148 L655.3089,148 A3.75,3.75 0 0 1 657.8089,150.5 L664.8089,170.2969 L764.47,170.2969 A2.5,2.5 0 0 1 766.97,172.7969 L766.97,236.5 A2.5,2.5 0 0 1 764.47,239 L565.64,239 A2.5,2.5 0 0 1 563.14,236.5 L563.14,150.5 A2.5,2.5 0 0 1 565.64,148" fill="none" style="stroke:#000000;stroke-width:1.5;"/><line style="stroke:#000000;stroke-width:1.5;" x1="563.14" x2="664.8089" y1="170.2969" y2="170.2969"/><text fill="#000000" font-family="sans-serif" font-size="14" font-weight="bold" lengthAdjust="spacing" textLength="88.6689" x="567.14" y="162.9951">Warehouse</text></g><!--entity u--><g class="entity" data-entity="u" data-source-line="7" data-uid="ent0004" id="entity_u"><ellipse cx="102.0649" cy="351.35" fill="#F1F1F1" rx="8" ry="8" style="stroke:#181818;stroke-width:0.5;"/><path d="M102.0649,359.35 L102.0649,386.35 M89.0649,367.35 L115.0649,367.35 M102.0649,386.35 L89.0649,401.35 M102.0649,386.35 L115.0649,401.35" fill="none" style="stroke:#181818;stroke-width:0.5;"/><text fill="#000000" font-family="sans-serif" font-size="14" lengthAdjust="spacing" textLength="112.1299" x="46" y="415.8451">Registered User</text></g><!--entity g--><g class="entity" data-entity="g" data-source-line="8" data-uid="ent0005" id="entity_g"><ellipse cx="102.0691" cy="240.35" fill="#F1F1F1" rx="8" ry="8" style="stroke:#181818;stroke-width:0.5;"/><path d="M102.0691,248.35 L102.0691,275.35 M89.0691,256.35 L115.0691,256.35 M102.0691,275.35 L89.0691,290.35 M102.0691,275.35 L115.0691,290.35" fill="none" style="stroke:#181818;stroke-width:0.5;"/><text fill="#000000" font-family="sans-serif" font-size="14" lengthAdjust="spacing" textLength="41.1182" x="81.51" y="304.8451">Guest</text></g><!--entity UC0--><g class="entity" data-entity="UC0" data-source-line="13" data-uid="ent0007" id="entity_UC0"><ellipse cx="375.6399" cy="478.002" fill="#F1F1F1" rx="67.1099" ry="15.822" style="stroke:#181818;stroke-width:0.5;"/><text fill="#000000" font-family="sans-serif" font-size="14" lengthAdjust="spacing" textLength="98.998" x="326.1409" y="482.6504">Show Account</text></g><!--entity UC5--><g class="entity" data-entity="UC5" data-source-line="17" data-uid="ent0009" id="entity_UC5"><ellipse cx="375.6421" cy="371.9984" fill="#F1F1F1" rx="63.2421" ry="15.0484" style="stroke:#181818;stroke-width:0.5;"/><text fill="#000000" font-family="sans-serif" font-size="14" lengthAdjust="spacing" textLength="88.751" x="331.2666" y="376.6469">Clear Basket</text></g><!--entity UC4--><g class="entity" data-entity="UC4" data-source-line="18" data-uid="ent0010" id="entity_UC4"><ellipse cx="375.6427" cy="306.0045" fill="#F1F1F1" rx="69.1227" ry="16.2245" style="stroke:#181818;stroke-width:0.5;"/><text fill="#000000" font-family="sans-serif" font-size="14" lengthAdjust="spacing" textLength="104.1592" x="323.5631" y="310.653">Delete Product</text></g><!--entity UC3--><g class="entity" data-entity="UC3" data-source-line="19" data-uid="ent0011" id="entity_UC3"><ellipse cx="375.6374" cy="234.0015" fill="#F1F1F1" rx="90.5074" ry="20.5015" style="stroke:#181818;stroke-width:0.5;"/><text fill="#000000" font-family="sans-serif" font-size="14" lengthAdjust="spacing" textLength="154.8887" x="298.1931" y="238.6499">Update Product Count</text></g><!--entity UC2--><g class="entity" data-entity="UC2" data-source-line="20" data-uid="ent0012" id="entity_UC2"><ellipse cx="375.6388" cy="164.0018" fill="#F1F1F1" rx="62.0588" ry="14.8118" style="stroke:#181818;stroke-width:0.5;"/><text fill="#000000" font-family="sans-serif" font-size="14" lengthAdjust="spacing" textLength="85.5107" x="332.8835" y="168.6502">Add Product</text></g><!--entity UC1--><g class="entity" data-entity="UC1" data-source-line="21" data-uid="ent0013" id="entity_UC1"><ellipse cx="375.6414" cy="99.0043" fill="#F1F1F1" rx="63.6714" ry="15.1343" style="stroke:#181818;stroke-width:0.5;"/><text fill="#000000" font-family="sans-serif" font-size="14" lengthAdjust="spacing" textLength="89.9131" x="330.6848" y="103.6527">Show Basket</text></g><!--entity UC6--><g class="entity" data-entity="UC6" data-source-line="25" data-uid="ent0015" id="entity_UC6"><ellipse cx="665.0621" cy="203.0024" fill="#F1F1F1" rx="85.9121" ry="19.5824" style="stroke:#181818;stroke-width:0.5;"/><text fill="#000000" font-family="sans-serif" font-size="14" lengthAdjust="spacing" textLength="144.4229" x="592.8507" y="207.6509">Check Product Stock</text></g><!--link u to g--><g class="link" data-entity-1="u" data-entity-2="g" data-source-line="28" data-uid="lnk16" id="link_u_g"><path d="M102.06,342.41 C102.06,331.1 102.06,337.78 102.06,326.47" fill="none" id="u-to-g" style="stroke:#181818;stroke-width:1;"/><polygon fill="none" points="102.06,308.47,96.06,326.47,108.06,326.47,102.06,308.47" style="stroke:#181818;stroke-width:1;"/></g><!--link u to UC0--><g class="link" data-entity-1="u" data-entity-2="UC0" data-source-line="30" data-uid="lnk17" id="link_u_UC0"><path d="M158.35,400.75 C211.7,419.8 285.3499,446.1011 331.6399,462.6411" fill="none" id="u-to-UC0" style="stroke:#181818;stroke-width:1;"/><polygon fill="#181818" points="337.29,464.66,330.1607,457.8649,332.5815,462.9776,327.4689,465.3985,337.29,464.66" style="stroke:#181818;stroke-width:1;"/></g><!--link g to UC1--><g class="link" data-entity-1="g" data-entity-2="UC1" data-source-line="32" data-uid="lnk18" id="link_g_UC1"><path d="M123.01,247.26 C150.96,216.75 204.71,162.84 261.13,132 C280.85,121.22 298.6401,115.0792 319.2201,109.9192" fill="none" id="g-to-UC1" style="stroke:#181818;stroke-width:1;"/><polygon fill="#181818" points="325.04,108.46,315.3374,106.7689,320.1901,109.676,317.283,114.5287,325.04,108.46" style="stroke:#181818;stroke-width:1;"/></g><!--link g to UC2--><g class="link" data-entity-1="g" data-entity-2="UC2" data-source-line="33" data-uid="lnk19" id="link_g_UC2"><path d="M123.07,259.34 C152.64,243.88 210.02,215.03 261.13,196 C283.68,187.61 303.6364,181.7025 324.9064,176.1225" fill="none" id="g-to-UC2" style="stroke:#181818;stroke-width:1;"/><polygon fill="#181818" points="330.71,174.6,320.9896,173.0147,325.8737,175.8688,323.0196,180.7529,330.71,174.6" style="stroke:#181818;stroke-width:1;"/></g><!--link g to UC3--><g class="link" data-entity-1="g" data-entity-2="UC3" data-source-line="34" data-uid="lnk20" id="link_g_UC3"><path d="M123.03,267.35 C159.11,262.57 230.9822,253.0494 290.5822,245.1394" fill="none" id="g-to-UC3" style="stroke:#181818;stroke-width:1;"/><polygon fill="#181818" points="296.53,244.35,287.082,241.5688,291.5735,245.0078,288.1345,249.4993,296.53,244.35" style="stroke:#181818;stroke-width:1;"/></g><!--link g to UC4--><g class="link" data-entity-1="g" data-entity-2="UC4" data-source-line="35" data-uid="lnk21" id="link_g_UC4"><path d="M123.03,272.65 C162.91,277.93 247.822,289.1919 308.732,297.2619" fill="none" id="g-to-UC4" style="stroke:#181818;stroke-width:1;"/><polygon fill="#181818" points="314.68,298.05,306.2833,292.9026,309.7233,297.3933,305.2326,300.8333,314.68,298.05" style="stroke:#181818;stroke-width:1;"/></g><!--link g to UC5--><g class="link" data-entity-1="g" data-entity-2="UC5" data-source-line="36" data-uid="lnk22" id="link_g_UC5"><path d="M122.66,279.76 C152.17,294.22 210.02,321.59 261.13,340 C283.67,348.12 303.5101,353.9632 324.7201,359.5832" fill="none" id="g-to-UC5" style="stroke:#181818;stroke-width:1;"/><polygon fill="#181818" points="330.52,361.12,322.8447,354.9483,325.6868,359.8393,320.7957,362.6814,330.52,361.12" style="stroke:#181818;stroke-width:1;"/></g><!--link UC2 to UC6--><g class="link" data-entity-1="UC2" data-entity-2="UC6" data-source-line="38" data-uid="lnk23" id="link_UC2_UC6"><path d="M430.36,171.29 C475.45,177.41 534.3645,185.4031 584.3245,192.1831" fill="none" id="UC2-to-UC6" style="stroke:#181818;stroke-width:1;stroke-dasharray:7,7;"/><polygon fill="#181818" points="590.27,192.99,581.8897,187.816,585.3154,192.3176,580.8138,195.7434,590.27,192.99" style="stroke:#181818;stroke-width:1;"/><text fill="#000000" font-family="sans-serif" font-size="13" lengthAdjust="spacing" textLength="47.0996" x="499.14" y="177.2269">include</text></g><!--link UC3 to UC6--><g class="link" data-entity-1="UC3" data-entity-2="UC6" data-source-line="39" data-uid="lnk24" id="link_UC3_UC6"><path d="M466.25,233.8 C492.4,232.94 520.98,231.23 547.14,228 C566.41,225.62 581.3289,222.9236 599.9589,218.8436" fill="none" id="UC3-to-UC6" style="stroke:#181818;stroke-width:1;stroke-dasharray:7,7;"/><polygon fill="#181818" points="605.82,217.56,596.1726,215.578,600.9358,218.6297,597.8841,223.3928,605.82,217.56" style="stroke:#181818;stroke-width:1;"/><text fill="#000000" font-family="sans-serif" font-size="13" lengthAdjust="spacing" textLength="47.0996" x="499.14" y="224.0669">include</text></g><!--SRC=[RP0xJyCm58Nt-okkCj4X5MtQ3WoHIa2iY2fYjgvldIXf7FaX1k2_urG9Jg2UZdo-Sr-ze4OencVIbmiROlm4QFdiq6aqjQeSojemkLft08CGdMeP2s-T3e60OtY2d3QOlB6ghMF34alB9a5XqS-05y_M3PyAu1kW7viVYRJlt5ZBMoPX6PDJfJycxrggBExdiKTX6_wNAbeMPlJ6r7v9F77BZl7LQEbfOdPBfkobY0mMinco9NcKya-fxOqr5lDivbky2yEL3lHraRX6nTJyzZyvJSsOFWnfZ-bNFfmnY3JDhwS1DUbDbDieioXtKUu1xWAsmlKwnw0EAtp0kgFMInwSxBOJXlW1]--></g></svg>